<svg width="405" height="420" viewBox="0 0 405 420" fill="none" xmlns="http://www.w3.org/2000/svg">
<path d="M365.239 91.7325C363.057 91.7325 359.931 91.7325 358.211 88.3069C356.801 85.496 357.278 80.9651 354.624 78.9402C357.278 79.7168 360.084 79.7168 362.266 79.7168C369.298 79.7168 376.016 74.881 381.171 74.881C384.568 74.881 385.663 77.0679 385.663 79.2452C385.668 86.1201 371.804 91.7325 365.239 91.7325ZM368.669 109.365C384.882 109.365 399.728 96.4158 399.728 85.0291C399.728 79.7168 397.222 75.3527 390.823 74.5714C391.914 75.9768 392.381 77.0679 392.381 79.5644C392.381 88.1497 379.303 97.6688 365.086 97.6688C359.931 97.6688 358.369 101.252 358.369 103.124C358.369 107.498 362.59 109.365 368.669 109.365ZM367.426 115.921C369.46 130.738 391.914 150.715 397.998 150.243C402.067 149.9 403.625 130.895 403.625 115.921C403.625 107.34 404.097 100.627 399.566 99.0648C392.376 113.582 373.519 116.545 367.426 115.921Z" fill="#1766A6"/>
<path d="M16.2273 214.062C21.5253 214.062 20.4342 181.602 29.0148 181.602C31.0492 181.602 31.6733 183.632 31.6733 186.128C31.6733 193.461 28.081 204.233 28.081 210.155C28.081 213.123 28.8623 214.062 30.2678 214.062C34.0174 214.062 40.5683 178.324 46.9621 178.324C48.9917 178.324 49.9255 180.354 49.9255 182.384C49.9255 189.873 40.4159 211.403 40.4159 217.487C40.4159 218.426 40.7208 219.202 41.5069 219.202C45.4089 219.202 53.2081 202.356 55.6998 193.932C57.1053 189.559 58.9777 187.215 60.6976 187.215C62.2556 187.215 63.6658 188.935 63.6658 192.527C63.6658 200.95 55.8571 220.765 48.9917 234.034C43.6937 244.329 35.4228 259.142 35.4228 267.413C35.4228 271.629 36.1899 275.993 42.2787 281.301C32.2927 280.677 28.2382 279.743 24.4982 271.944C7.79921 305.175 55.2329 301.902 39.0056 331.379C36.0374 326.085 12.6398 320.621 12.6398 289.729C12.6398 263.049 36.0374 247.445 36.0374 236.373C36.0374 234.191 35.2656 232.319 33.236 230.603C28.081 226.225 27.9238 222.647 23.8693 222.647C20.9107 222.647 17.3088 229.508 21.0584 235.592C22.3114 237.621 23.4024 238.87 23.4024 240.742C23.4024 245.106 16.5322 256.802 11.7012 256.802C6.86064 256.802 3.1254 244.806 3.1254 225.448C3.1254 208.278 7.01786 190.969 11.8584 190.969C13.2591 190.969 13.726 191.903 13.726 193.156C13.726 195.185 13.1067 199.235 13.1067 206.1C13.1067 213.433 14.8218 214.062 16.2273 214.062Z" fill="#1766A6"/>
<path d="M56.0048 259.771C62.5652 259.771 68.0204 254.925 68.0204 244.177V228.255C68.0204 222.17 68.4921 215.31 72.5513 210.465C72.0796 212.499 72.0796 214.681 72.0796 216.711C72.0796 230.132 79.5644 239.341 79.5644 252.286C79.5644 257.117 78.1589 259.775 74.4237 259.775C70.8314 259.775 71.1458 256.498 70.3597 256.498C69.7403 256.498 68.8018 258.522 68.8018 260.709C68.8018 263.987 71.141 269.133 77.692 269.133C83.3139 269.133 87.8305 263.987 87.8305 258.213C87.8305 244.182 76.9107 228.569 76.9107 213.595C76.9107 207.039 78.6258 202.675 80.0313 199.235C80.0313 230.289 106.397 252.91 106.397 265.855C106.397 268.823 104.215 271.167 100.937 271.167C97.3497 271.167 95.6297 268.351 95.6297 266.164C95.6297 265.073 95.4725 264.764 95.0056 264.764C94.0766 264.764 91.2656 267.884 91.2656 271.948C91.2656 277.089 95.4725 283.34 103.276 283.34C112.162 283.34 117.003 275.841 117.003 269.133C117.003 252.758 85.0196 227.945 85.0196 201.427C85.0196 196.896 85.7914 189.563 89.0788 183.951C68.4826 197.205 62.0888 214.843 62.0888 230.289C62.0888 243.71 61.6219 250.409 54.7565 250.409C51.1642 250.409 50.2304 247.14 48.9774 247.14C48.0435 247.14 47.5719 249.947 47.5719 250.723C47.5814 256.493 51.7978 259.771 56.0048 259.771Z" fill="#1766A6"/>
<path d="M292.387 84.0905C294.369 82.7613 303.164 84.8671 314.537 79.2452C315.937 78.4781 317.343 78.1637 318.591 78.1637C324.061 78.1637 322.655 84.4002 327.653 84.4002C331.545 84.4002 336.553 81.1223 339.521 81.1223C344.171 81.1223 350.884 95.7917 350.884 102.657C350.884 110.614 338.892 115.454 324.685 115.454C303.946 115.454 291.449 97.3544 291.449 85.6485C291.453 84.7147 291.925 84.4002 292.387 84.0905ZM326.405 103.905C333.275 103.905 338.425 100.785 338.425 98.9076C338.425 98.293 337.491 97.8213 335.457 97.8213C333.427 97.8213 329.368 97.6689 321.717 96.4159C315.151 95.3248 310.158 92.8283 308.286 92.8283C307.662 92.8283 307.347 93.138 307.347 93.6049C307.347 97.6689 314.846 103.905 326.405 103.905Z" fill="#1766A6"/>
<path d="M59.2874 318.591C54.1419 319.844 45.8662 327.944 45.8662 340.755C45.8662 356.034 62.2508 379.603 89.2408 379.603C112.014 379.603 117.636 363.843 117.636 353.223C117.636 329.668 103.134 313.126 84.2573 313.126C73.9568 313.126 64.7473 320.616 64.7473 331.688C64.7473 341.998 72.5513 357.439 91.1131 357.439C99.8509 357.439 104.996 351.189 104.996 344.033C104.996 337.005 98.6027 327.338 89.236 327.338C86.4298 327.338 84.405 329.192 84.405 332.169C84.405 335.905 89.5457 339.659 95.9489 339.659C97.5021 339.659 98.7551 339.345 99.384 339.03C99.6889 339.511 99.8509 340.283 99.8509 340.907C99.8509 344.5 96.4158 346.686 91.1131 346.686C83.1567 346.686 75.5099 340.76 75.5099 331.379C75.5099 325.776 80.3505 321.721 87.3684 321.721C101.252 321.721 109.518 334.042 109.518 346.377C109.518 357.444 103.443 363.852 90.9559 363.852C65.9908 363.848 53.8322 341.374 59.2874 318.591Z" fill="#1766A6"/>
<path d="M237.388 410.009C244.873 410.009 244.482 409.385 246.826 409.385C249.16 409.385 249.322 410.791 249.322 411.729C249.322 415.164 241.671 419.376 228.097 419.376C220.141 419.376 215.3 415.159 213.9 410.481C206.1 415.474 194.247 420 182.541 420C150.563 420 142.449 406.102 132.458 401.591C124.811 398.156 113.11 404.868 96.7255 386.612C98.9124 387.083 101.881 387.236 104.22 387.236C118.565 387.236 126.212 380.227 126.212 368.983C126.212 367.573 126.055 366.03 125.898 364.629C130.271 366.344 140.262 373.824 142.606 387.083C142.911 388.646 149.305 390.047 153.364 390.047C158.986 390.047 166.161 387.703 167.252 378.507C185.976 376.949 198.62 365.877 201.274 351.818C207.973 354.004 215.62 360.088 217.492 363.219C220.146 362.285 223.262 361.813 226.849 361.813C231.842 361.813 237.464 362.752 244.167 364.781C244.482 362.752 244.792 360.255 247.917 360.255C252.596 360.255 251.347 365.405 252.91 368.355C253.691 369.917 257.598 370.851 257.598 373.977C257.598 376.949 255.087 378.045 253.529 378.045C252.905 378.045 252.124 377.888 251.652 377.736C248.536 378.827 248.374 401.281 235.272 401.281C225.606 401.281 216.711 393.324 212.804 383.348C211.713 380.385 209.373 378.507 207.187 378.507C204.695 378.507 203.289 378.979 200.331 382.257C191.907 391.452 177.862 399.409 160.544 399.409C155.236 399.409 151.025 398.932 149.929 398.932C149.3 398.932 149.3 399.089 149.3 399.242C149.3 400.338 154.603 404.554 166.151 404.554C193.613 404.554 200.326 389.103 204.69 389.103C205.324 389.103 207.182 389.103 208.273 391.605C214.681 406.574 228.65 410.009 237.388 410.009ZM225.291 378.827C225.291 382.262 228.102 385.073 231.537 385.073C234.972 385.073 237.778 382.262 237.778 378.827C237.778 375.387 234.972 372.576 231.537 372.576C228.102 372.576 225.291 375.387 225.291 378.827Z" fill="#1766A6"/>
<path d="M348.859 300.958C346.672 300.958 344.333 302.678 344.333 306.899C344.333 311.564 347.925 314.537 349.95 315.466C351.046 316.099 352.766 316.723 354.467 316.723C358.997 316.723 362.595 315.466 362.595 311.716C362.59 306.899 355.558 300.958 348.859 300.958ZM332.027 310.625C328.749 310.625 310.625 334.809 298.948 334.809C296.142 334.809 293.798 329.506 293.798 325.466C293.798 323.279 295.198 321.717 300.206 320.616C327.034 314.532 321.097 294.398 344.014 294.398C356.649 294.398 370.713 302.993 370.713 322.331C370.713 342.927 341.398 368.507 337.024 368.507C333.432 368.507 329.53 363.362 329.53 359.931C329.53 358.84 330.002 357.435 333.122 356.187C348.082 350.25 356.653 336.524 356.653 329.497C356.653 327.934 355.877 326.39 353.847 326.39C351.198 326.39 339.84 352.28 327.186 352.28C318.434 352.28 309.534 344.342 309.534 340.588C309.534 334.337 334.837 322.803 334.837 314.055C334.833 310.773 333.275 310.625 332.027 310.625Z" fill="#1766A6"/>
<path d="M23.2452 106.092C23.2452 106.092 18.7238 109.518 13.1067 109.518C6.40326 109.518 1.0958 104.529 1.0958 97.5069C1.0958 92.6663 3.59231 87.678 9.36192 85.1768C9.20946 86.1153 9.20946 86.8919 9.20946 87.8305C9.20469 96.7303 14.1977 103.434 23.2452 106.092ZM56.6337 136.05C53.2033 140.1 49.611 146.97 49.611 153.988C49.611 162.411 54.766 169.429 62.7225 169.429C70.3645 169.429 73.9568 162.878 73.9568 156.175C73.9568 145.722 64.4376 138.38 56.6337 136.05ZM4.84056 142.287C4.54518 142.768 4.3689 143.383 4.3689 144.007C4.3689 145.412 5.93159 146.97 7.32754 146.97C8.5758 146.97 9.35715 146.661 9.98128 146.661C13.7213 146.661 17.9377 149.309 24.0218 149.309C27.6046 149.309 31.821 148.214 37.1237 145.569C48.358 139.948 52.7317 126.064 52.7317 123.72C52.7317 120.752 50.3495 121.143 48.358 118.413C46.3665 115.692 47.1288 113.286 45.8615 112.014C45.1421 111.285 42.9028 111.238 40.0871 110.923C39.1485 110.823 37.9003 110.766 36.652 110.766C31.5113 110.766 25.4082 111.4 18.5571 115.764C5.02637 124.402 7.01787 138.699 4.84056 142.287ZM41.5021 122.939C42.5836 124.411 45.5661 126.222 45.5661 127.313C45.5661 129.49 44.3083 132.306 41.8166 132.306C36.3519 132.306 31.9877 124.035 31.9877 119.347C31.9877 116.388 33.7077 116.078 36.0422 116.078C37.1332 116.078 37.6049 116.235 38.3815 116.702C39.7822 117.484 39.7822 120.6 41.5021 122.939ZM27.1424 141.977C21.9969 141.977 16.3798 135.583 16.3798 129.804C16.3798 126.688 18.7191 122.782 20.4342 122.782C21.0584 122.782 21.3728 123.253 21.5253 124.349C22.4591 131.991 27.4569 136.365 32.1402 138.542C32.6071 138.852 32.9216 139.009 32.9216 139.319C32.9216 140.414 29.9534 141.977 27.1424 141.977ZM40.4111 102.657C41.1877 100.156 41.8118 97.0447 41.8118 93.6049C41.8118 86.1201 38.372 74.7286 27.7665 74.7286C21.6873 74.7286 17.3088 79.5644 17.3088 85.3388C17.3088 97.6689 29.6389 102.657 40.4111 102.657ZM0 165.065C0 176.919 3.59231 182.541 9.98605 182.541C14.9791 182.541 21.6873 178.948 29.6389 172.083C23.5596 173.488 18.8715 174.427 14.6646 174.427C9.04747 174.427 4.68334 172.24 0 165.065ZM5.46469 151.177C5.31223 151.963 5.31223 152.74 5.31223 153.516C5.31223 160.849 9.20469 164.908 14.3549 164.908C18.2426 164.908 22.7783 162.569 26.8232 157.414C25.1176 157.723 23.0832 157.881 21.2108 157.881C15.446 157.881 9.20469 156.327 5.46469 151.177ZM43.689 148.995C40.0919 149.929 32.6071 154.298 32.6071 162.097C32.6071 167.709 36.9712 171.306 42.4359 171.306C45.2469 171.306 47.2717 170.678 48.52 169.744C44.1559 165.532 42.5932 160.849 42.5932 156.175C42.5932 152.892 43.0601 150.867 43.689 148.995ZM49.3013 106.245C49.3013 109.675 52.1075 112.491 55.5379 112.491C58.9729 112.491 61.7839 109.68 61.7839 106.245C61.7839 102.814 58.9729 99.9986 55.5379 99.9986C52.1075 99.9986 49.3013 102.814 49.3013 106.245ZM57.4102 120.285C57.4102 123.72 60.226 126.531 63.6658 126.531C67.0914 126.531 69.9023 123.72 69.9023 120.285C69.9023 116.86 67.0914 114.049 63.6658 114.049C60.2212 114.049 57.4102 116.86 57.4102 120.285Z" fill="#1766A6"/>
<path d="M300.825 196.891C300.825 193.775 303.636 191.121 306.718 191.121C310.158 191.121 312.812 193.775 312.812 196.891C312.812 200.478 310.153 202.98 306.718 202.98C303.636 202.98 300.825 200.478 300.825 196.891ZM246.045 148.838C246.045 152.268 248.86 155.079 252.281 155.079C255.726 155.079 258.537 152.268 258.537 148.838C258.537 145.412 255.721 142.601 252.281 142.601C248.86 142.601 246.045 145.412 246.045 148.838ZM240.747 170.835C240.747 175.675 244.792 179.725 249.637 179.725C254.468 179.725 258.537 175.675 258.537 170.835C258.537 166.004 254.468 161.94 249.637 161.94C244.792 161.94 240.747 166.004 240.747 170.835ZM260.409 160.849C260.409 166.161 264.625 170.368 269.9 170.368C275.202 170.368 279.433 166.161 279.433 160.849C279.433 155.546 275.202 151.334 269.9 151.334C264.625 151.334 260.409 155.546 260.409 160.849ZM261.195 140.567C261.195 143.85 263.849 146.508 267.093 146.508C270.371 146.508 273.025 143.85 273.025 140.567C273.025 137.299 270.366 134.645 267.093 134.645C263.849 134.645 261.195 137.299 261.195 140.567ZM289.424 125.597C289.424 128.866 292.078 131.519 295.36 131.519C298.638 131.519 301.297 128.866 301.297 125.597C301.297 122.315 298.638 119.661 295.36 119.661C292.078 119.661 289.424 122.315 289.424 125.597ZM277.713 144.788C277.713 150.243 282.239 154.765 287.704 154.765C293.173 154.765 297.704 150.243 297.704 144.788C297.704 139.319 293.178 134.802 287.704 134.802C282.239 134.802 277.713 139.319 277.713 144.788ZM261.657 181.292C261.657 184.728 264.468 187.529 267.875 187.529C271.31 187.529 274.126 184.728 274.126 181.292C274.126 177.857 271.31 175.051 267.875 175.051C264.468 175.051 261.657 177.857 261.657 181.292ZM282.087 168.805C282.087 172.24 284.893 175.051 288.338 175.051C291.768 175.051 294.579 172.24 294.579 168.805C294.579 165.38 291.768 162.569 288.338 162.569C284.893 162.569 282.087 165.38 282.087 168.805ZM276.312 190.807C276.312 196.734 281.148 201.574 287.085 201.574C293.016 201.574 297.866 196.734 297.866 190.807C297.866 184.88 293.016 180.039 287.085 180.039C281.148 180.039 276.312 184.88 276.312 190.807ZM298.791 177.538C298.791 181.602 302.073 184.88 306.104 184.88C310.163 184.88 313.441 181.602 313.441 177.538C313.441 173.489 310.163 170.211 306.104 170.211C302.073 170.211 298.791 173.489 298.791 177.538ZM298.324 157.881C298.324 161.478 301.297 164.441 304.846 164.441C308.443 164.441 311.411 161.478 311.411 157.881C311.411 154.298 308.443 151.334 304.846 151.334C301.297 151.334 298.324 154.298 298.324 157.881Z" fill="#1766A6"/>
<path d="M314.217 362.595C310.158 365.72 300.668 372.728 284.893 372.728C276.465 372.728 272.715 370.075 271.467 370.075C269.904 370.075 268.189 371.632 266.469 373.667C262.763 378.041 257.917 386.154 257.917 395.04C257.917 401.276 262.763 407.508 271.777 407.508C300.982 407.508 322.808 389.261 322.808 374.448C322.808 366.03 317.815 362.595 314.217 362.595ZM306.104 360.879C307.366 359.803 307.662 358.073 307.662 356.348V352.761C307.662 348.23 300.825 345.591 291.453 345.591C280.052 345.591 273.964 350.727 273.964 352.918V360.093C273.964 363.066 280.838 366.03 289.271 366.03C295.984 366.03 302.073 364.314 306.104 360.879ZM304.846 376.325C305.632 376.325 306.561 376.788 306.561 379.603C306.561 383.029 305.008 387.55 299.415 391.133C295.513 393.796 290.2 395.983 282.396 396.121C283.645 392.391 284.583 388.479 284.583 384.753C284.583 383.5 284.431 382.562 284.274 381.161H286.303C298.638 381.166 303.95 376.325 304.846 376.325Z" fill="#1766A6"/>
<path d="M245.263 185.666C246.978 198.921 264.783 192.212 264.783 208.278C264.783 210.622 264.159 214.062 264.159 217.02C264.159 220.455 264.463 223.419 267.093 223.419C269.742 223.419 270.371 221.551 270.371 219.05C270.371 216.549 269.742 213.433 269.742 211.718C269.742 206.253 273.649 205.009 275.998 205.009C281.93 205.009 286.456 211.093 295.36 211.093C293.326 221.079 272.715 218.426 272.715 229.35C272.715 234.815 278.18 236.054 281.772 236.054C285.05 236.054 286.146 235.587 286.146 232.785C286.146 231.218 285.832 229.503 285.832 228.412C285.832 227.783 286.303 227.159 287.085 227.159C290.529 227.159 307.347 239.956 307.347 243.862C307.347 247.445 289.581 251.033 284.431 251.033C282.868 251.033 282.554 249.942 282.554 249.318C282.554 248.227 285.207 244.949 285.207 243.081C285.207 241.676 282.868 240.737 276.617 240.737C273.649 240.737 271.462 241.052 271.462 243.396C271.462 247.598 278.332 252.753 278.332 256.645C278.332 259.771 276.46 261.643 271.462 261.643C267.246 261.643 260.871 258.36 260.871 252.905C260.871 248.536 265.373 244.177 265.373 241.518C265.373 240.737 264.778 239.489 262.906 239.489C257.122 239.489 255.564 254.773 235.115 256.493C238.393 253.529 241.194 250.251 241.194 243.553C241.194 240.275 240.423 237.616 240.423 234.034C240.423 229.35 242.6 227.006 245.721 227.006C251.49 227.006 254.301 235.115 258.06 235.115C260.095 235.115 262.277 233.252 262.277 230.441C262.277 218.583 239.489 220.298 239.489 203.604C239.494 199.078 241.047 193.461 245.263 185.666ZM319.682 231.38C319.682 235.272 320.94 239.799 324.842 239.799C328.12 239.799 330.926 234.815 330.926 229.35C330.926 223.109 329.835 218.268 329.835 215.767C329.835 214.681 330.307 214.214 330.926 214.214C333.27 214.371 335.452 220.765 337.958 220.765C340.769 220.765 344.957 215.61 346.667 215.61C347.139 215.61 347.291 216.239 347.291 216.391C347.291 218.735 343.699 223.89 343.699 225.915C343.699 227.63 352.756 227.94 352.756 229.503C352.756 231.847 343.261 231.847 338.739 233.876C334.371 235.744 331.703 238.083 331.703 241.209C331.703 244.329 334.828 244.949 339.202 244.949C349.626 244.949 356.963 239.336 359.302 239.336C359.769 239.336 360.079 239.641 360.079 240.113C360.079 241.676 354.776 246.821 354.776 249.165C354.776 251.814 364.457 254.925 364.3 256.493C364.148 256.96 363.519 257.112 362.428 257.112C360.703 257.112 358.054 256.645 356.02 256.645C354.771 256.645 353.68 256.798 353.204 257.422C352.123 258.675 353.518 266.946 351.346 266.946C349.312 266.946 344.004 248.536 332.017 248.536C330.297 248.536 329.049 249.942 329.049 252.281C329.049 258.518 335.138 265.693 340.917 269.128C343.532 270.848 347.911 272.563 347.911 273.506C347.911 275.369 337.949 273.659 337.949 276.775C337.949 279.585 339.197 283.807 339.197 286.294C339.197 287.075 339.04 288.004 338.106 288.004C336.233 288.004 331.698 279.428 329.516 279.428C327.643 279.428 323.584 284.574 321.864 284.574C321.397 284.574 321.088 284.107 321.088 283.645C321.088 280.052 326.867 271.943 326.867 263.982C326.867 260.238 326.395 252.124 321.864 252.124C318.119 252.124 313.898 258.051 312.026 263.982C310.94 267.413 311.716 280.676 309.215 280.676C306.876 280.676 307.5 271.786 304.37 271.786C302.068 271.786 297.071 275.993 295.351 275.993C295.036 275.993 294.722 275.836 294.722 275.526C294.722 273.659 299.253 267.57 299.253 266.322C299.253 263.982 288.947 263.673 288.947 261.8C288.947 260.704 293.007 259.928 296.751 259.299C304.689 257.893 316.395 252.124 316.395 244.015C316.395 234.967 307.652 231.061 301.906 227.316C298.938 225.444 295.66 223.89 295.66 222.642C295.66 221.389 299.405 221.389 300.968 221.389C303.307 221.389 305.623 221.232 305.623 219.364C305.623 217.954 305.308 215.153 305.308 212.966C305.308 211.403 305.461 210.155 306.094 210.155C308.434 210.155 311.711 217.797 313.279 217.797C315.771 217.797 319.206 211.556 321.555 211.556C322.326 211.556 322.646 212.027 322.646 213.428C322.655 219.202 319.682 225.753 319.682 231.38Z" fill="#1766A6"/>
<path d="M249.794 274.588C256.979 275.526 258.699 278.018 258.699 280.052C258.699 283.487 255.573 284.574 252.6 284.574C250.423 284.574 247.922 284.107 245.268 284.107C241.828 284.107 238.403 284.888 235.596 288.166C237.621 288.476 240.589 289.886 240.589 293.011C240.589 302.059 215.472 294.56 215.472 317.819C215.472 330.14 228.269 343.566 247.607 343.566C257.608 343.566 264.006 340.288 264.006 336.534C264.006 333.575 258.703 335.595 258.703 333.099C258.703 332.007 260.576 329.973 260.576 328.248C260.576 327.496 259.952 326.081 258.703 326.081C255.883 326.081 250.575 330.592 239.808 330.592C231.38 330.592 223.109 325.771 223.109 319.21C223.109 317.81 223.738 317.024 224.672 317.024C225.61 317.024 226.854 317.653 227.95 317.653C228.888 317.653 229.041 317.024 229.041 315.313C229.041 313.593 229.041 308.753 231.999 308.753C234.972 308.753 240.589 319.677 262.134 319.677C269.285 319.677 283.183 318.281 288.338 313.593C288.18 330.759 274.745 353.38 246.673 353.38C217.497 353.38 201.893 329.973 201.893 308.438C201.893 284.574 221.389 262.891 248.079 262.891C254.935 262.891 260.724 265.226 260.724 268.194C260.719 272.258 250.571 269.757 249.794 274.588ZM297.7 282.868C298.791 284.574 299.262 286.294 299.262 287.852C299.262 292.225 296.294 296.28 296.294 300.811C296.294 305.956 300.201 310.163 306.104 310.163C312.502 310.163 316.876 305.027 316.876 298.933C316.876 290.663 309.382 283.645 297.7 282.868ZM246.045 292.849C247.598 294.403 248.074 295.965 248.074 297.528C248.074 299.867 246.983 302.369 246.983 305.022C246.983 308.753 249.794 312.035 253.844 312.035C258.222 312.035 261.195 308.596 261.195 304.555C261.195 298.624 255.087 292.849 246.045 292.849ZM266.784 266.322C283.178 269.442 292.078 281.772 292.078 293.321C292.078 301.282 287.085 308.6 278.337 308.6C270.371 308.6 264.625 303.145 264.625 294.407C264.625 287.856 269.742 280.991 269.742 274.278C269.742 271.629 268.966 268.975 266.784 266.322ZM274.902 287.075C274.902 289.257 276.465 290.977 278.652 290.977C281.143 290.977 282.711 288.79 282.711 286.294C282.711 283.021 279.743 278.494 276.932 278.494C275.679 278.494 276.15 280.367 275.841 282.396C275.679 283.95 274.902 285.822 274.902 287.075Z" fill="#1766A6"/>
<path d="M102.667 126.531C107.969 126.531 114.049 97.8213 114.049 92.9808C114.049 91.7325 113.587 90.7939 112.495 90.7939C107.655 90.7939 100.951 118.103 100.951 124.192C100.947 125.283 101.256 126.531 102.667 126.531ZM140.891 135.112C144.783 135.112 149.152 120.128 149.152 110.766C149.152 108.736 148.843 106.559 147.899 106.559C144.621 106.559 139.161 122.005 139.161 130.428C139.166 133.706 139.952 135.112 140.891 135.112ZM115.445 121.224C117.16 121.224 119.347 119.342 123.415 114.83C123.72 112.8 123.72 110.923 123.72 108.584C123.72 105.468 122.472 102.033 120.604 102.033C115.916 102.033 113.582 114.516 113.582 117.798C113.587 119.661 114.516 121.224 115.445 121.224ZM136.827 114.83C136.827 112.171 136.198 111.547 135.579 111.547C134.016 111.547 132.306 113.425 129.809 117.636C130.119 123.253 131.057 125.75 132.615 125.75C134.33 125.75 136.827 120.285 136.827 114.83ZM148.843 96.4158C159.143 96.4158 163.817 105.311 163.817 115.297C163.817 119.661 162.578 126.064 160.549 126.064C158.519 126.064 158.833 122.472 158.519 119.194C158.209 114.982 157.423 114.049 156.018 114.049C153.364 114.049 151.654 120.285 151.654 126.064C151.654 129.647 152.278 133.706 155.079 133.706C156.642 133.706 158.047 132.925 158.986 131.991C158.362 139.161 153.05 145.412 145.565 145.412C131.834 145.412 126.684 129.337 125.131 119.975C116.86 128.713 109.218 135.112 95.482 135.112C82.6946 135.112 76.9202 125.75 76.9202 116.86C76.9202 114.201 77.854 107.34 81.1366 107.34C85.0339 107.34 81.6035 120.128 89.2455 120.128C91.1227 120.128 94.5435 118.565 96.4254 113.425C97.5164 110.299 98.1405 107.031 98.1405 104.215C98.1405 99.9986 97.2067 97.3544 94.0861 97.3544C91.4276 97.3544 88.1497 99.3745 87.0587 100.47C90.8082 89.236 99.8557 83.4664 109.827 83.4664C122.167 83.4664 128.713 94.3862 128.713 106.559C128.713 108.27 128.556 110.142 128.242 111.862C133.549 103.124 140.891 96.4158 148.843 96.4158Z" fill="#1766A6"/>
<path d="M119.666 138.38C112.958 138.38 112.648 146.508 112.648 162.878C107.65 152.116 99.3888 140.567 89.7124 140.567C83.1615 140.567 80.6697 144.941 80.6697 152.578C80.6697 154.141 80.8222 156.485 81.1366 157.881C81.918 155.236 84.4145 154.141 87.5304 154.141C94.2481 154.141 102.357 159.286 107.66 166.313C101.58 165.222 95.6488 164.127 90.6605 164.127C87.5351 164.127 84.7289 164.441 82.3897 165.532C77.8635 167.557 71.7795 174.27 71.7795 184.413C71.7795 185.976 71.9367 187.686 72.2512 189.559C77.7111 177.386 92.2185 171.926 101.58 171.926C103.458 171.926 104.854 172.083 105.949 172.24C101.109 176.604 100.022 184.251 99.7033 189.401C99.5556 191.898 98.6122 192.06 96.8923 192.06C96.8923 197.201 100.956 204.852 100.956 208.749C100.956 210.155 100.175 211.403 99.3983 211.718C99.3983 218.583 106.254 223.576 106.254 227.94C106.254 229.031 105.949 229.97 105.473 230.441C105.949 233.252 113.496 237.974 114.473 240.342C115.673 243.219 117.022 243.705 117.803 243.705C120.457 243.705 124.659 240.58 124.659 237.769C124.659 236.835 123.877 235.744 123.263 235.272C120.295 233.095 118.732 228.412 117.484 225.296C116.388 225.296 114.978 224.834 114.482 222.995C113.629 219.765 113.587 213.747 112.338 210.155C110.309 209.688 109.37 208.907 109.37 204.695C109.37 202.665 110.623 194.704 110.623 191.893C109.689 191.893 108.441 191.269 108.441 189.397C108.441 184.408 113.439 180.506 114.835 174.113C123.73 180.659 125.907 187.367 125.907 193.303C125.907 196.415 125.44 199.383 124.816 202.198C131.372 198.916 141.201 194.08 141.201 184.251C141.201 178.472 138.547 172.078 120.914 169.582C126.374 167.552 133.244 166.466 139.014 166.466C149.005 166.466 154.774 169.582 156.018 176.6C158.047 173.484 159.61 169.891 159.61 166.618C159.61 158.967 153.207 153.983 145.098 153.983C135.579 153.983 127.155 158.967 118.103 165.06C122.172 156.637 124.964 151.644 129.966 151.644C130.743 151.644 131.524 151.801 132.306 151.958C130.433 145.098 123.415 138.38 119.666 138.38Z" fill="#1766A6"/>
<path d="M382.543 250.876C390.356 250.876 396.598 261.014 396.598 272.877C396.598 285.512 390.661 299.248 380.08 308.6C379.922 287.542 354.147 294.25 354.147 278.966C354.147 272.415 358.84 268.042 364.462 268.042C369.46 268.042 373.362 269.447 376.173 272.263C373.362 269.604 371.956 265.855 371.956 262.272C371.956 256.331 375.706 250.876 382.543 250.876Z" fill="#1766A6"/>
<path d="M243.234 102.657C247.298 106.559 250.876 108.269 255.249 108.269C256.974 108.269 259.008 107.807 260.104 107.807C261.51 107.807 262.439 108.427 262.439 109.518C262.439 111.238 260.876 114.049 259.008 115.611C260.876 116.388 262.91 116.702 265.097 116.702C273.959 116.702 284.107 111.08 284.107 97.0447C285.989 99.5317 287.08 104.687 287.08 107.031C287.08 124.035 274.583 130.586 263.063 130.586C255.568 130.586 251.814 128.084 250.871 128.084C247.912 128.084 248.069 134.021 246.04 133.864C242.448 133.239 239.179 125.283 239.179 116.86C239.184 111.862 240.432 106.559 243.234 102.657ZM266.784 91.2656C265.536 89.236 260.876 88.1497 258.699 88.1497C251.819 88.1497 247.136 92.9807 246.202 97.3544C245.578 95.7917 245.111 93.9193 245.111 92.0469C245.111 85.1815 249.794 76.7582 261.2 76.7582C271.157 76.7582 275.059 82.0609 276.47 82.0609C278.028 82.0609 279.59 80.4982 280.843 80.4982C282.558 80.4982 282.558 83.1519 282.558 85.0291C282.558 91.2656 279.743 102.033 272.72 105.935C271.467 103.281 268.971 100.313 264.94 98.4454C263.849 97.9785 263.382 97.0447 263.382 96.1061C263.377 94.3862 264.935 92.1994 266.784 91.2656Z" fill="#1766A6"/>
<path d="M134.797 57.253C134.797 62.7129 154.298 89.3932 158.047 89.3932C161.173 89.3932 163.507 83.9333 163.507 79.2452C163.507 78.0065 163.193 76.763 162.578 75.8196C159.767 71.9176 139.952 56.3144 135.579 56.3144C135.107 56.3144 134.797 56.7861 134.797 57.253ZM20.1198 41.1829C20.1198 44.3083 8.26612 54.7565 4.05921 54.7565C2.50127 54.7565 2.02484 52.8889 2.02484 51.1737C2.02484 48.0579 3.43032 43.6842 5.15024 42.2739C7.17032 40.4016 11.8537 39.4773 15.4412 39.4773C17.6233 39.4773 20.1198 39.9347 20.1198 41.1829ZM162.578 50.2352C162.578 40.8685 137.265 23.8646 136.984 16.537C136.956 15.8652 137.322 15.1982 137.889 14.6027C142.225 10.0289 160.229 6.69389 160.229 2.79667C160.229 0.77659 156.48 0.77659 154.607 0.77659C140.1 0.77659 118.88 6.07929 118.88 11.2248C118.88 16.537 137.913 29.4865 137.913 35.885C137.913 37.6001 136.822 38.2243 135.102 38.2243C129.804 38.2243 118.256 31.821 112.796 31.821C110.299 31.821 109.356 33.5362 109.356 36.0422C109.356 43.527 118.251 57.7247 118.251 61.9268C118.251 62.3985 118.094 63.0226 117.469 63.0226C114.658 63.0226 101.409 47.429 96.7208 47.429C95.0104 47.429 94.8484 49.7635 94.8484 53.1986V58.5013C94.8484 62.0888 94.6912 64.2757 92.9855 64.2757C88.9168 64.2757 87.0492 52.8889 83.1519 52.8889C79.0927 52.8889 78.3114 73.1659 74.4189 73.1659C69.888 73.1659 73.79 50.8545 69.4211 50.8545C64.5853 50.8545 59.1206 65.6811 55.6855 65.6811C54.4421 65.6811 54.1324 64.4281 54.1324 63.3371C54.1324 58.8157 56.7766 51.4834 56.7766 47.1193C56.7766 44.9277 56.1525 43.6842 54.2896 43.6842C49.4443 43.6842 38.8389 51.4834 34.7844 51.4834C34.1603 51.4834 33.3789 51.1737 33.3789 50.5448C33.3789 46.8096 50.3828 34.9464 50.3828 29.6437C50.3828 24.4887 26.9709 27.9285 26.9709 21.9922C26.9709 17.0039 43.6794 11.8537 43.6794 6.70342C43.6794 2.1773 23.8598 0.157227 16.2178 0.157227C7.00833 0.157227 2.02008 1.23873 2.02008 3.89247C2.02008 7.95168 22.9307 9.2047 22.9307 12.7875C22.9307 16.2226 1.23872 25.4273 1.23872 30.73C1.23872 35.4133 31.8162 31.0396 31.8162 35.885C31.8162 41.1829 5.14548 64.1137 5.14548 71.7604C5.14548 73.4803 6.39373 74.2617 8.10413 74.2617C16.2178 74.2617 37.2714 58.8157 43.0505 58.8157C45.0801 58.8157 45.2374 61.3075 45.2374 63.4943C45.2374 67.5535 43.8366 73.79 43.8366 78.3209C43.8366 81.9037 44.7705 84.4002 47.8863 84.4002C53.6702 84.4002 58.9634 74.5714 62.8749 74.5714C67.8632 74.5714 64.8998 103.434 72.3893 103.434C78.7831 103.434 81.432 72.2321 85.4912 72.2321C89.5504 72.2321 92.8331 81.2796 96.5731 81.2796C101.247 81.2796 99.0648 65.5239 104.063 65.5239C109.518 65.5239 125.121 84.2477 132.144 84.2477C134.326 84.2477 135.102 82.5278 135.102 80.341C135.102 72.0701 123.563 53.3558 123.563 47.429C123.563 45.871 124.025 45.3994 125.74 45.3994C131.824 45.3994 149.619 53.8227 158.038 53.8227C160.868 53.8227 162.578 52.2648 162.578 50.2352ZM146.346 19.3432C146.346 22.1494 156.175 28.2382 160.706 28.2382C163.355 28.2382 164.136 24.6459 164.136 20.9011C164.136 16.2226 162.116 16.0653 158.052 16.0653C152.902 16.0653 146.346 17.4708 146.346 19.3432ZM109.68 3.42556C109.68 2.48699 105.001 1.54841 98.6074 1.54841C88.4642 1.54841 89.8697 9.98605 82.0704 9.98605C73.9568 9.98605 75.9769 1.23873 65.6811 1.23873C59.4398 1.23873 53.675 2.33453 53.675 3.73524C53.675 5.61239 61.0025 4.83104 61.0025 9.98605C61.0025 15.4412 45.2421 17.0039 45.2421 20.2818C45.2421 21.3728 46.4856 21.8397 48.0483 21.8397C51.4882 21.8397 56.9386 20.2818 60.8453 20.2818C63.0322 20.2818 65.0618 20.7439 65.0618 22.7735C65.0618 26.6755 56.6289 33.6981 56.6289 36.8188C56.6289 37.7574 57.4055 38.0718 58.1868 38.0718C61.3122 38.0718 66.6197 30.1106 71.6079 30.1106C79.8788 30.1106 74.4237 47.7386 78.9403 47.7386C83.6189 47.7386 81.594 30.4155 88.3022 30.4155C93.7717 30.4155 97.8213 42.4312 101.566 42.4312C102.505 42.4312 103.281 41.6546 103.281 40.5588C103.281 37.2905 98.6027 30.5727 98.6027 26.2086C98.6027 23.5549 100.475 22.3019 102.972 22.3019C106.554 22.3019 111.395 24.4887 114.039 24.4887C114.973 24.4887 115.912 24.179 115.912 23.088C115.912 19.3432 102.038 15.2888 102.038 10.453C102.043 5.61239 109.68 5.61239 109.68 3.42556Z" fill="#1766A6"/>
<path d="M386.288 28.7098C386.288 42.5883 376.173 53.1985 357.897 56.1619C359.931 56.3144 361.804 56.3144 363.681 56.3144C385.039 56.3144 392.853 46.6476 392.853 38.5387C392.853 34.0078 390.352 29.9581 386.288 28.7098ZM359.931 44.4607C359.931 33.3837 333.427 30.5727 333.427 28.0809C333.427 26.0561 348.225 22.6163 355.872 22.459C344.171 7.48473 327.496 9.04743 327.496 6.39369C327.496 4.83099 339.983 1.70559 351.513 1.70559C361.184 1.70559 370.237 3.89241 370.237 11.2247C370.237 15.2887 366.959 19.5051 366.959 25.7369C366.959 29.172 368.664 32.1354 373.205 32.1354C378.055 32.1354 379.136 26.9899 379.136 21.5205C379.136 17.0039 378.36 13.5688 378.36 11.382C378.36 4.83099 382.852 0.466858 389.256 0.466858C394.563 0.466858 395.816 2.79662 403.625 2.79662C399.404 5.30266 397.846 9.82878 397.846 12.0061C397.846 18.5666 402.072 23.0879 402.072 36.5091C402.072 61.1502 378.984 69.888 350.731 69.888C342.965 69.888 334.68 69.2639 326.557 68.0204C325.314 67.8632 324.999 67.5535 324.999 66.7721C324.999 64.7425 336.091 63.6467 336.091 53.6702C336.091 49.7634 334.838 46.0234 334.838 44.6227C334.838 43.8414 335.462 43.3697 336.091 43.3697C338.43 43.3697 343.123 52.4172 351.832 52.4172C354.147 52.4172 359.931 51.6358 359.931 44.4607ZM385.354 9.986C385.354 12.1633 387.069 13.8785 389.256 13.8785C391.443 13.8785 393.163 12.1633 393.163 9.986C393.163 7.79917 391.443 6.07925 389.256 6.07925C387.069 6.07925 385.354 7.79917 385.354 9.986Z" fill="#1766A6"/>
<path d="M371.49 154.141C371.49 150.867 363.209 150.558 362.433 141.348C362.271 139.948 361.804 137.456 360.084 137.456C357.278 137.456 359.46 146.036 356.339 146.036C349.164 146.036 346.825 131.991 344.171 131.991C343.542 131.991 342.799 132.458 342.799 134.33C342.799 136.05 343.113 137.141 343.113 139.161C343.113 141.196 342.637 142.601 340.769 142.601C336.553 142.601 332.803 132.768 329.211 132.768C328.429 132.768 327.653 133.239 327.653 134.021C327.653 135.893 330.769 139.319 330.769 141.039C330.769 144.788 320.621 142.754 320.621 145.879C320.621 147.285 322.021 147.747 323.899 147.747C327.181 147.747 332.336 146.351 334.99 146.351C336.553 146.351 338.892 146.661 338.892 148.681C338.892 150.867 333.27 153.674 333.27 155.703C333.27 156.642 334.204 157.104 334.985 157.104C339.202 157.104 346.663 149.776 351.97 149.776C352.904 149.776 355.243 150.243 355.243 151.649C355.243 153.674 349.94 157.256 349.94 160.225C349.94 161.006 350.417 161.94 351.351 161.94C354.143 161.94 357.892 154.612 363.204 154.612C365.234 154.612 368.202 155.394 369.77 155.394C371.023 155.394 371.49 154.612 371.49 154.141ZM375.549 229.812C378.05 222.018 381.175 216.549 386.288 208.125C381.175 205.481 367.583 199.854 367.583 190.65C367.583 179.882 381.004 171.459 383.786 171.459C385.039 171.459 385.349 172.555 385.349 174.584C385.349 180.197 382.695 189.244 382.695 194.085C382.695 198.449 385.506 202.67 388.003 202.67C390.657 202.67 397.994 193.308 397.994 184.099C397.994 167.557 383.472 162.569 378.979 162.569C374.763 162.569 367.111 169.429 349.159 169.429C315.623 169.429 307.971 136.208 307.971 121.691C307.971 121.067 308.119 120.909 308.276 120.909C309.058 120.909 312.345 124.973 322.955 124.973C328.42 124.973 333.418 123.563 341.384 123.563C360.074 123.563 368.355 136.522 379.913 153.05C386.902 157.414 403.615 164.441 403.615 184.256C403.615 201.731 385.035 211.403 380.537 230.127C387.684 229.35 391.905 216.549 399.242 216.549C402.991 216.549 404.707 219.517 404.707 224.205C404.707 231.061 400.8 241.366 393.305 247.76C393.458 247.136 393.458 246.349 393.458 245.416C393.458 241.052 391.747 234.815 386.74 234.815C378.97 234.815 376.473 243.238 372.104 250.251C367.573 234.343 361.484 219.984 350.565 211.246C339.516 202.356 320.459 207.187 320.459 190.964C320.459 186.59 323.274 180.354 323.274 175.361C323.274 173.646 322.96 172.083 322.017 170.835C337.01 176.457 331.698 186.433 340.922 196.734C346.663 203.294 362.585 209.531 371.794 236.521C371.947 235.744 372.104 233.719 372.104 232.314C372.104 209.221 341.536 186.59 338.882 177.229C356.639 179.258 359.76 183.632 368.193 207.034C369.922 211.875 375.549 223.89 375.549 229.812Z" fill="#1766A6"/>
<path d="M290.205 64.7426C279.271 64.7426 272.091 59.2874 272.091 56.4717C272.091 55.0662 273.025 54.1371 274.283 54.1371C277.713 54.1371 285.207 59.4351 287.699 59.4351C288.333 59.4351 288.795 59.1302 288.795 58.1916C288.795 55.3806 286.141 50.7021 286.141 48.3675C286.141 47.7387 286.613 47.2765 287.547 47.2765C291.758 47.2765 298.004 48.9917 301.292 48.9917C302.383 48.9917 302.692 48.3675 302.692 47.7387C302.692 44.3083 292.54 37.6001 292.54 35.5705C292.54 33.6982 305.156 30.8824 305.156 27.9285C305.156 24.8031 288.004 26.99 288.004 24.0218C288.004 21.8397 291.287 18.0949 291.287 16.3798C291.287 15.5984 290.658 15.2888 289.572 15.2888C288.166 15.2888 280.672 18.2522 277.546 18.2522C275.988 18.2522 274.111 17.9425 274.111 15.7509C274.111 12.1634 280.2 8.26612 289.729 8.26612C305.151 8.26612 314.37 18.8763 314.37 36.6616C314.379 59.1302 298.638 64.7426 290.205 64.7426ZM259.79 35.1036C259.79 33.3837 253.691 30.1106 253.691 28.2382C253.691 27.9285 253.996 27.7713 254.468 27.7713C256.193 27.7713 259.161 28.3954 261.51 28.3954C263.539 28.3954 263.849 19.6576 265.383 19.6576C266.474 19.6576 268.342 27.9285 270.071 27.9285C272.096 27.9285 275.841 25.5845 277.403 25.5845C277.713 25.5845 278.028 25.7369 278.028 26.0562C278.028 27.1472 274.126 31.3541 274.126 32.6024C274.126 34.0078 282.873 35.7278 282.873 36.976C282.873 38.5387 273.968 38.3815 273.968 39.787C273.968 40.8685 277.251 45.2421 277.251 46.6476C277.251 46.9621 277.089 47.1193 276.779 47.1193C275.526 47.1193 270.69 44.9277 269.285 44.9277C267.565 44.9277 264.787 51.3262 263.382 51.3262C262.915 51.3262 262.605 50.7021 262.605 49.9207L262.291 43.6842C262.291 43.0601 261.986 42.4312 261.2 42.4312C259.323 42.4312 255.73 42.274 254.63 42.274C253.849 42.274 253.539 42.1215 253.539 41.807C253.534 40.5588 259.79 36.1947 259.79 35.1036ZM255.249 60.6786C257.755 60.6786 258.222 66.7722 258.699 70.3549C259.008 72.2321 259.323 72.3846 260.104 72.3846C261.981 72.3846 264.94 65.2095 266.946 65.2095C269.904 65.2095 277.875 73.4804 291.144 73.4804C310.011 73.4804 327.81 60.2117 327.81 36.8188C327.81 14.193 311.873 0.929045 289.891 0.929045C279.438 0.929045 271.777 6.07929 267.718 6.07929C265.254 6.23652 261.51 0 259.628 0C258.851 0 258.07 1.54841 258.07 4.20691C258.07 5.92683 258.07 11.382 256.193 11.382C252.438 11.382 237.936 0.624128 237.936 4.51659C237.936 8.1089 247.598 19.0335 247.598 21.8397C247.598 24.6459 238.088 27.3044 238.088 29.172C238.088 32.6024 248.227 33.2265 248.227 37.6001C248.227 41.9643 237.612 45.3994 237.612 48.6772C237.612 51.3262 248.227 49.4586 248.227 52.7317C248.227 56.0048 240.427 66.9294 240.427 70.0405C240.427 70.8266 240.58 70.8266 241.199 70.8266C244.167 70.8266 253.062 60.6786 255.249 60.6786Z" fill="#1766A6"/>
<path d="M184.575 334.661C184.575 336.067 184.103 337.629 182.855 339.183C181.15 336.067 176.304 334.504 174.117 334.509C158.047 334.509 164.131 357.759 146.97 357.759C139.795 357.759 139.166 356.82 136.522 356.82C135.426 356.82 134.802 357.292 134.802 358.226C134.802 362.29 140.576 372.266 156.647 372.266C172.717 372.266 188.167 362.442 188.167 350.26C188.167 348.23 187.701 346.062 186.762 343.875C187.386 342.937 188.954 342.313 190.354 342.313C192.846 342.313 194.251 345.133 196.591 345.133C199.092 345.133 200.964 343.251 200.964 340.76C200.964 338.72 199.873 337.324 198.006 336.376C199.254 335.447 200.188 333.885 200.188 332.169C200.188 329.506 198.311 327.024 195.185 327.024C193.78 327.024 192.851 327.5 191.76 328.568C191.455 325.776 189.887 323.122 186.919 323.122C184.58 323.122 182.855 324.832 182.855 327.496C182.855 329.973 184.575 332.012 184.575 334.661Z" fill="#1766A6"/>
<path d="M99.0744 305.651C111.557 308.753 117.798 315.466 119.042 323.427C120.29 331.069 121.848 337.32 124.811 340.431C128.713 344.809 136.36 348.687 143.073 348.687C148.69 348.687 153.207 346.834 153.207 341.679C153.207 336.057 145.565 323.422 134.33 323.422C133.239 323.422 131.834 323.584 130.271 323.584C128.866 323.584 126.836 323.274 125.593 322.179C123.101 319.987 122.315 308.286 117.636 301.268C112.491 293.464 106.874 291.277 99.2316 291.277C93.7764 291.277 87.6828 294.236 87.6828 298.609C87.6828 301.278 89.0883 303.145 99.0744 305.651ZM142.606 340.593C137.918 340.593 130.9 335.59 130.9 332.779C130.9 330.435 133.087 329.187 134.793 329.187C138.699 329.187 145.712 334.037 145.712 338.092C145.717 339.183 144.936 340.593 142.606 340.593Z" fill="#1766A6"/>
<path d="M128.246 219.05C128.246 209.064 151.968 203.761 151.968 191.431C151.968 189.401 151.187 185.819 149.781 183.165C158.043 187.686 164.131 195.338 164.131 201.574C164.131 212.342 152.902 217.335 152.902 224.048C152.902 231.847 164.913 233.095 164.913 242.767C164.913 250.718 153.521 259.928 153.521 270.224C153.521 278.18 159.143 284.726 167.714 285.822C164.908 286.446 162.416 286.913 159.762 286.913C143.997 286.913 127.775 273.968 127.775 258.518C127.775 250.876 131.053 244.177 136.036 239.336C140.414 243.081 144.779 245.573 147.59 245.573C150.081 245.573 151.182 244.329 151.182 242.457C151.187 236.678 128.246 231.38 128.246 219.05ZM178.019 297.842C172.669 300.291 170.535 299.872 170.535 305.337C170.535 307.362 170.063 310.001 170.063 311.411C170.063 313.284 170.373 314.379 172.555 314.379C178.177 314.379 187.072 304.865 187.072 296.747C187.072 294.555 185.819 293.636 184.413 293.636C183.165 293.636 181.769 296.122 178.019 297.842ZM177.395 286.603C177.395 279.585 162.883 279.428 162.883 268.818C162.883 266.16 164.593 261.643 168.033 256.798C169.444 264.911 172.707 269.128 179.739 271.786C193.618 276.927 195.495 284.726 195.495 293.007C195.495 307.052 185.666 324.523 160.391 324.523C140.105 324.523 125.593 306.418 125.593 291.129C125.593 286.913 126.684 282.239 129.337 282.239C131.681 282.239 132.458 284.107 134.33 285.974C141.358 293.007 149 294.869 160.077 294.869C170.063 294.874 177.395 290.82 177.395 286.603Z" fill="#1766A6"/>
<path d="M66.9056 289.986C67.2867 293.245 64.957 296.184 61.7029 296.566C58.4441 296.947 55.4902 294.612 55.1186 291.358C54.7375 288.095 57.0672 285.145 60.326 284.764C63.5848 284.383 66.5292 286.722 66.9056 289.986ZM37.7478 296.122C38.4101 301.449 43.3793 305.489 48.9869 304.865C51.0117 304.641 52.8889 304.088 54.1419 303.307C55.3902 308.295 59.578 311.507 65.238 310.763C70.9838 310.015 74.8906 305.489 74.2712 299.715C74.1092 298.162 73.7996 297.214 73.3374 296.122C73.3374 296.122 74.0949 296.041 74.6667 295.937C80.3029 294.869 84.1001 290.348 83.6284 284.888C83.009 279.271 77.9684 275.102 72.7228 275.75C70.6884 275.998 68.8113 276.774 67.5583 277.866C66.148 273.192 61.7506 269.128 55.7475 270.119C50.3209 271.019 46.7334 275.622 47.2765 281.458C47.367 282.406 47.5862 283.487 48.0579 284.574C48.0579 284.574 47.1383 284.712 46.5047 284.802C41.95 285.479 37.0094 290.062 37.7478 296.122Z" fill="#1766A6"/>
</svg>
